<svg version="1.1" id="Layer_1" xmlns="http://www.w3.org/2000/svg" xmlns:xlink="http://www.w3.org/1999/xlink" x="0px" y="0px"
	 width="50px" height="50px" viewBox="0 0 1080 1080" enable-background="new 0 0 1080 1080" xml:space="preserve">
<path fill="none" opacity="1.000000" stroke="none" 
	d="
M1.000000,668.000000 
	C1.000000,593.975098 1.000000,519.950195 1.466079,445.409729 
	C27.409718,444.889618 52.887276,444.885284 78.364838,444.880554 
	C86.843842,444.878998 86.979881,444.743805 86.979958,436.269806 
	C86.980698,353.344025 86.979462,270.418274 86.983635,187.492493 
	C86.984077,178.652603 85.869476,177.498856 76.850700,177.490326 
	C53.371395,177.468155 29.892035,177.493393 6.412746,177.461945 
	C4.608294,177.459534 2.804239,177.160934 1.000000,177.000000 
	C1.000000,118.350739 1.000000,59.701473 1.000000,1.026105 
	C360.875824,1.026105 720.751648,1.026105 1081.000000,1.026105 
	C1081.000000,60.357727 1081.000000,119.716232 1080.569580,179.580933 
	C1069.233765,180.922882 1068.273071,181.933029 1068.188477,192.673431 
	C1068.176636,194.171844 1068.185303,195.670425 1068.185791,197.168930 
	C1068.201660,242.955276 1068.215576,288.741638 1068.234497,334.527985 
	C1068.244141,357.837463 1068.189819,381.147308 1068.315796,404.456177 
	C1068.362793,413.159882 1068.903687,413.542603 1077.225952,414.972717 
	C1078.505005,415.192535 1079.743042,415.651581 1081.000000,416.000000 
	C1081.000000,637.616455 1081.000000,859.232910 1081.000000,1080.924683 
	C721.000000,1080.924683 361.000000,1080.924683 1.000000,1080.924683 
	C1.000000,1036.905396 1.000000,992.915344 1.443539,948.297607 
	C27.878647,947.621033 53.870235,947.580200 79.861771,947.517334 
	C86.048363,947.502380 86.975258,946.612122 86.975761,940.710999 
	C86.983315,852.736084 86.985474,764.761230 86.976105,676.786316 
	C86.975250,668.737427 86.255333,668.080750 77.976486,668.072937 
	C52.317657,668.048828 26.658829,668.024353 1.000000,668.000000 
M745.843994,800.355103 
	C751.774963,791.993103 758.134155,783.896545 763.525391,775.200012 
	C769.842590,765.009949 775.546265,754.416931 781.093567,743.778442 
	C786.724487,732.979309 792.243164,722.084900 797.052063,710.905823 
	C800.763977,702.276917 803.476074,693.198303 806.318604,684.220154 
	C809.748108,673.387756 813.390930,662.576477 815.947998,651.526184 
	C819.081116,637.986755 822.167358,624.303040 823.485291,610.510803 
	C825.127930,593.319153 825.787292,575.930603 825.323669,558.668579 
	C824.821716,539.977295 825.227478,521.143921 821.050781,502.655334 
	C818.896362,493.118134 817.805298,483.345520 815.932861,473.737915 
	C814.829529,468.076416 813.406616,462.443512 811.649353,456.950684 
	C808.679871,447.668671 805.523193,438.435699 802.091370,429.315247 
	C798.129700,418.786591 794.539124,408.015717 789.431763,398.044434 
	C781.524780,382.607239 772.701599,367.620483 763.848145,352.691071 
	C748.382935,326.612244 728.250610,304.178040 706.706482,283.173859 
	C686.447449,263.422516 663.061218,247.544693 639.052246,232.544708 
	C599.283081,207.698318 555.690125,193.009415 510.073883,184.420425 
	C489.400482,180.527893 468.090912,178.767853 447.030579,178.419235 
	C392.214996,177.511826 337.377625,177.916260 282.548950,177.806931 
	C270.237274,177.782379 257.925446,177.824341 245.613846,177.787903 
	C217.797241,177.705566 189.980637,177.516922 162.164200,177.542755 
	C154.401550,177.549973 152.423721,179.702988 152.415848,187.494858 
	C152.372757,230.160583 152.382141,272.826447 152.435959,315.492157 
	C152.444321,322.124329 153.423309,323.042328 160.034286,323.064850 
	C176.367142,323.120483 192.700317,323.084381 209.033356,323.085114 
	C210.804459,323.085205 212.575546,323.085144 214.523560,323.085144 
	C214.523560,483.451019 214.523560,643.196594 214.523560,803.546692 
	C212.494110,803.546692 210.711975,803.546570 208.929825,803.546631 
	C193.430099,803.547424 177.929672,803.460876 162.430923,803.584412 
	C154.129395,803.650574 152.416458,805.235291 152.410416,812.441833 
	C152.374527,855.274414 152.448959,898.107117 152.313919,940.939270 
	C152.299332,945.569458 154.445343,947.226501 158.476959,947.524780 
	C160.301468,947.659790 162.141327,947.609924 163.974167,947.606934 
	C247.798141,947.472290 331.622498,947.446350 415.445892,947.144104 
	C453.355347,947.007385 491.427826,947.746033 528.504272,937.911682 
	C547.535522,932.863647 566.589355,927.554199 585.044067,920.762695 
	C610.327759,911.458191 633.961670,898.819824 656.512207,883.737000 
	C690.725891,860.853271 719.689880,832.716919 745.843994,800.355103 
z"/>
<path fill="#0D2B4E" opacity="1.000000" stroke="none" 
	d="
M1.000000,668.468628 
	C26.658829,668.024353 52.317657,668.048828 77.976486,668.072937 
	C86.255333,668.080750 86.975250,668.737427 86.976105,676.786316 
	C86.985474,764.761230 86.983315,852.736084 86.975761,940.710999 
	C86.975258,946.612122 86.048363,947.502380 79.861771,947.517334 
	C53.870235,947.580200 27.878647,947.621033 1.443539,947.834961 
	C1.000000,854.979126 1.000000,761.958191 1.000000,668.468628 
z"/>
<path fill="#0D2B4E" opacity="1.000000" stroke="none" 
	d="
M1.000000,177.468658 
	C2.804239,177.160934 4.608294,177.459534 6.412746,177.461945 
	C29.892035,177.493393 53.371395,177.468155 76.850700,177.490326 
	C85.869476,177.498856 86.984077,178.652603 86.983635,187.492493 
	C86.979462,270.418274 86.980698,353.344025 86.979958,436.269806 
	C86.979881,444.743805 86.843842,444.878998 78.364838,444.880554 
	C52.887276,444.885284 27.409718,444.889618 1.466079,444.947083 
	C1.000000,355.979095 1.000000,266.958221 1.000000,177.468658 
z"/>
<path fill="#153255" opacity="1.000000" stroke="none" 
	d="
M1081.000000,415.531342 
	C1079.743042,415.651581 1078.505005,415.192535 1077.225952,414.972717 
	C1068.903687,413.542603 1068.362793,413.159882 1068.315796,404.456177 
	C1068.189819,381.147308 1068.244141,357.837463 1068.234497,334.527985 
	C1068.215576,288.741638 1068.201660,242.955276 1068.185791,197.168930 
	C1068.185303,195.670425 1068.176636,194.171844 1068.188477,192.673431 
	C1068.273071,181.933029 1069.233765,180.922882 1080.569580,180.043549 
	C1081.000000,258.354218 1081.000000,336.708466 1081.000000,415.531342 
z"/>
<path fill="#0C2A4E" opacity="1.000000" stroke="none" 
	d="
M745.650757,800.655518 
	C719.689880,832.716919 690.725891,860.853271 656.512207,883.737000 
	C633.961670,898.819824 610.327759,911.458191 585.044067,920.762695 
	C566.589355,927.554199 547.535522,932.863647 528.504272,937.911682 
	C491.427826,947.746033 453.355347,947.007385 415.445892,947.144104 
	C331.622498,947.446350 247.798141,947.472290 163.974167,947.606934 
	C162.141327,947.609924 160.301468,947.659790 158.476959,947.524780 
	C154.445343,947.226501 152.299332,945.569458 152.313919,940.939270 
	C152.448959,898.107117 152.374527,855.274414 152.410416,812.441833 
	C152.416458,805.235291 154.129395,803.650574 162.430923,803.584412 
	C177.929672,803.460876 193.430099,803.547424 208.929825,803.546631 
	C210.711975,803.546570 212.494110,803.546692 214.523560,803.546692 
	C214.523560,643.196594 214.523560,483.451019 214.523560,323.085144 
	C212.575546,323.085144 210.804459,323.085205 209.033356,323.085114 
	C192.700317,323.084381 176.367142,323.120483 160.034286,323.064850 
	C153.423309,323.042328 152.444321,322.124329 152.435959,315.492157 
	C152.382141,272.826447 152.372757,230.160583 152.415848,187.494858 
	C152.423721,179.702988 154.401550,177.549973 162.164200,177.542755 
	C189.980637,177.516922 217.797241,177.705566 245.613846,177.787903 
	C257.925446,177.824341 270.237274,177.782379 282.548950,177.806931 
	C337.377625,177.916260 392.214996,177.511826 447.030579,178.419235 
	C468.090912,178.767853 489.400482,180.527893 510.073883,184.420425 
	C555.690125,193.009415 599.283081,207.698318 639.052246,232.544708 
	C663.061218,247.544693 686.447449,263.422516 706.706482,283.173859 
	C728.250610,304.178040 748.382935,326.612244 763.848145,352.691071 
	C772.701599,367.620483 781.524780,382.607239 789.431763,398.044434 
	C794.539124,408.015717 798.129700,418.786591 802.091370,429.315247 
	C805.523193,438.435699 808.679871,447.668671 811.649353,456.950684 
	C813.406616,462.443512 814.829529,468.076416 815.932861,473.737915 
	C817.805298,483.345520 818.896362,493.118134 821.050781,502.655334 
	C825.227478,521.143921 824.821716,539.977295 825.323669,558.668579 
	C825.787292,575.930603 825.127930,593.319153 823.485291,610.510803 
	C822.167358,624.303040 819.081116,637.986755 815.947998,651.526184 
	C813.390930,662.576477 809.748108,673.387756 806.318604,684.220154 
	C803.476074,693.198303 800.763977,702.276917 797.052063,710.905823 
	C792.243164,722.084900 786.724487,732.979309 781.093567,743.778442 
	C775.546265,754.416931 769.842590,765.009949 763.525391,775.200012 
	C758.134155,783.896545 751.774963,791.993103 745.650757,800.655518 
M444.447113,803.720215 
	C462.042908,802.728943 479.816010,803.234375 496.524170,795.920349 
	C505.948212,791.794861 516.199341,789.306763 525.135620,784.373962 
	C541.398621,775.396790 556.421692,764.494751 569.787292,751.366638 
	C586.576111,734.875977 599.695740,715.698303 610.947571,695.283020 
	C616.773682,684.712097 621.461670,673.386230 625.497803,661.988525 
	C630.630737,647.493103 634.595398,632.583191 639.010193,617.836060 
	C639.286987,616.911316 639.089661,615.847229 639.129578,614.848572 
	C639.229309,612.352173 639.280457,609.852112 639.453308,607.360596 
	C640.865356,587.010620 644.817810,566.802185 641.910767,546.228455 
	C639.777893,531.133118 642.006165,515.476562 635.828918,500.862488 
	C634.774597,498.368256 635.579285,495.129578 634.696899,492.514343 
	C630.490906,480.048950 625.986389,467.684509 621.612061,455.275696 
	C615.862000,438.964294 607.465271,424.093353 597.849304,409.750580 
	C587.464417,394.260956 575.268372,380.618958 561.514343,368.002075 
	C550.034851,357.471680 537.081604,349.324310 523.686279,342.058868 
	C512.915588,336.217072 501.084808,331.698822 489.191101,328.730042 
	C476.424713,325.543427 463.079193,323.907562 449.907532,323.297577 
	C430.953430,322.419769 411.928131,323.080353 392.933197,323.084290 
	C391.333191,323.084625 389.733215,323.084320 388.194519,323.084320 
	C388.194519,483.597351 388.194519,643.448242 388.194519,803.719910 
	C406.857025,803.719910 425.159332,803.719910 444.447113,803.720215 
z"/>
<path fill="#FEFEFF" opacity="1.000000" stroke="none" 
	d="
M443.954376,803.720093 
	C425.159332,803.719910 406.857025,803.719910 388.194519,803.719910 
	C388.194519,643.448242 388.194519,483.597351 388.194519,323.084320 
	C389.733215,323.084320 391.333191,323.084625 392.933197,323.084290 
	C411.928131,323.080353 430.953430,322.419769 449.907532,323.297577 
	C463.079193,323.907562 476.424713,325.543427 489.191101,328.730042 
	C501.084808,331.698822 512.915588,336.217072 523.686279,342.058868 
	C537.081604,349.324310 550.034851,357.471680 561.514343,368.002075 
	C575.268372,380.618958 587.464417,394.260956 597.849304,409.750580 
	C607.465271,424.093353 615.862000,438.964294 621.612061,455.275696 
	C625.986389,467.684509 630.490906,480.048950 634.696899,492.514343 
	C635.579285,495.129578 634.774597,498.368256 635.828918,500.862488 
	C642.006165,515.476562 639.777893,531.133118 641.910767,546.228455 
	C644.817810,566.802185 640.865356,587.010620 639.453308,607.360596 
	C639.280457,609.852112 639.229309,612.352173 639.129578,614.848572 
	C639.089661,615.847229 639.286987,616.911316 639.010193,617.836060 
	C634.595398,632.583191 630.630737,647.493103 625.497803,661.988525 
	C621.461670,673.386230 616.773682,684.712097 610.947571,695.283020 
	C599.695740,715.698303 586.576111,734.875977 569.787292,751.366638 
	C556.421692,764.494751 541.398621,775.396790 525.135620,784.373962 
	C516.199341,789.306763 505.948212,791.794861 496.524170,795.920349 
	C479.816010,803.234375 462.042908,802.728943 443.954376,803.720093 
z"/>
</svg>
